<?xml version="1.0" encoding="utf-8"?>
<!-- Svg Vector Icons : http://www.onlinewebfonts.com/icon -->
<!DOCTYPE svg PUBLIC "-//W3C//DTD SVG 1.1//EN" "http://www.w3.org/Graphics/SVG/1.1/DTD/svg11.dtd">
<svg version="1.1" xmlns="http://www.w3.org/2000/svg" xmlns:xlink="http://www.w3.org/1999/xlink" x="0px" y="0px" viewBox="0 0 256 256" enable-background="new 0 0 256 256" xml:space="preserve">
<metadata> Svg Vector Icons : http://www.onlinewebfonts.com/icon </metadata>
<g><g><g><path fill="#000000" id="Baidu" d="M68.3,95.5c1.5,21.8-10.3,40.3-26.3,41.4c-16.1,1.1-30.3-15.6-31.9-37.3C8.6,77.9,20.4,59.3,36.5,58.2C52.5,57.1,66.8,73.8,68.3,95.5z M179,5.4c-15.6-4-32.6,9.9-38,31c-5.4,21.1,2.9,41.5,18.5,45.5s32.6-9.9,38-31C204.5,23.3,182.7,6.3,179,5.4z M215.6,76.6c-16.4,0.2-29.5,15.9-29.1,40.1c0.4,24.2,13.9,35.2,30.4,35c16.4-0.2,29.5-11.7,29.1-35.9C245.5,84.3,219.6,76.6,215.6,76.6z M96.6,0C81,0,68.3,17.6,68.3,39.2S81,78.3,96.6,78.3c15.6,0,28.3-17.5,28.3-39.1C124.9,17.6,112.3,0,96.6,0z M93,121.5c-9,13-19.3,25.6-39.1,42.2c-19.9,16.6-28.3,28-28.3,44.9c0,16.9,9.6,44.9,37,44.9c27.4,0,40.6-6,62.3-6c21.7,0,36.1,8.4,63.5,8.4c27.4,0,38.8-25.9,38.8-42.8c0-16.9-4.8-26.4-26.7-45.7c-14-12.4-26-22.4-44.7-48.3c-9.2-12.8-19.9-14.5-31-14.5C113.8,104.6,102.1,108.5,93,121.5z"/></g><g></g><g></g><g></g><g></g><g></g><g></g><g></g><g></g><g></g><g></g><g></g><g></g><g></g><g></g><g></g></g></g>
</svg>